<svg width="120" height="40" viewBox="0 0 120 40" fill="none" xmlns="http://www.w3.org/2000/svg">
<g clip-path="url(#clip0_7999_109084)">
<path d="M110.37 0.00598938H9.77003C9.40333 0.00598938 9.04103 0.00598938 8.6753 0.00798938C8.36915 0.00998938 8.06544 0.0157994 7.75635 0.0206894C7.08487 0.0285912 6.41496 0.0876656 5.75245 0.197399C5.09088 0.309522 4.45002 0.520905 3.85157 0.824399C3.25385 1.13046 2.7077 1.52816 2.23292 2.00306C1.75565 2.47663 1.35781 3.02401 1.0547 3.62415C0.750752 4.2231 0.539992 4.86493 0.429702 5.52747C0.318363 6.18917 0.25845 6.85851 0.250502 7.52947C0.241222 7.83607 0.240242 8.14369 0.235352 8.45033V31.5646C0.240242 31.8751 0.241222 32.1759 0.250502 32.4865C0.258452 33.1574 0.318365 33.8267 0.429702 34.4884C0.539688 35.1513 0.75046 35.7935 1.0547 36.3927C1.35768 36.9909 1.75557 37.5361 2.23292 38.007C2.7059 38.484 3.2524 38.882 3.85157 39.1857C4.45002 39.49 5.0908 39.7026 5.75245 39.8165C6.41507 39.9253 7.08491 39.9844 7.75635 39.9933C8.06544 40.0001 8.36915 40.004 8.6753 40.004C9.04102 40.006 9.40335 40.006 9.77003 40.006H110.37C110.73 40.006 111.095 40.006 111.454 40.004C111.759 40.004 112.071 40.0001 112.376 39.9933C113.046 39.9849 113.715 39.9258 114.376 39.8165C115.04 39.7018 115.683 39.4893 116.284 39.1857C116.883 38.8818 117.429 38.4838 117.901 38.007C118.378 37.5342 118.776 36.9894 119.083 36.3927C119.385 35.7931 119.594 35.1509 119.702 34.4884C119.814 33.8266 119.876 33.1575 119.888 32.4865C119.892 32.1759 119.892 31.8751 119.892 31.5646C119.899 31.2013 119.899 30.84 119.899 30.4708V9.54212C119.899 9.17591 119.899 8.81263 119.892 8.45033C119.892 8.14369 119.892 7.83607 119.888 7.52943C119.876 6.85841 119.814 6.18923 119.702 5.52743C119.593 4.86527 119.385 4.22349 119.083 3.62411C118.466 2.42119 117.487 1.44201 116.284 0.824309C115.683 0.521557 115.04 0.31023 114.376 0.197309C113.715 0.0870922 113.046 0.0279971 112.376 0.0205494C112.071 0.0156694 111.759 0.00980937 111.454 0.00785938C111.095 0.00585938 110.73 0.00598938 110.37 0.00598938Z" fill="#A6A6A6"/>
<path d="M8.68022 39.1309C8.37554 39.1309 8.07822 39.127 7.77593 39.1202C7.14971 39.112 6.52496 39.0575 5.90679 38.9571C5.33038 38.8578 4.77199 38.6731 4.25005 38.4092C3.73289 38.1474 3.2612 37.8041 2.85305 37.3926C2.43899 36.9858 2.09427 36.5141 1.83254 35.9961C1.56793 35.4746 1.3848 34.9158 1.28954 34.3389C1.18666 33.719 1.131 33.0922 1.12304 32.4639C1.1167 32.253 1.1084 31.5508 1.1084 31.5508V8.4502C1.1084 8.4502 1.11724 7.75879 1.12309 7.55566C1.13071 6.92834 1.18605 6.30251 1.28862 5.68359C1.38406 5.10511 1.56733 4.54461 1.83208 4.02149C2.09284 3.5038 2.43565 3.03172 2.84722 2.62354C3.25832 2.21148 3.73152 1.86646 4.24956 1.60107C4.7703 1.33795 5.32763 1.15459 5.90288 1.05713C6.52308 0.955696 7.15 0.900855 7.77839 0.893069L8.68071 0.880859H111.449L112.362 0.893559C112.985 0.900959 113.606 0.955309 114.221 1.05615C114.802 1.15483 115.365 1.33947 115.892 1.604C116.929 2.13885 117.774 2.98502 118.307 4.02393C118.567 4.54344 118.748 5.09937 118.842 5.67285C118.946 6.29685 119.004 6.9276 119.016 7.56006C119.019 7.84326 119.019 8.14746 119.019 8.4502C119.026 8.8252 119.026 9.18213 119.026 9.54199V30.4707C119.026 30.834 119.026 31.1885 119.019 31.5459C119.019 31.8711 119.019 32.169 119.015 32.4756C119.003 33.0967 118.946 33.7162 118.844 34.3291C118.75 34.9101 118.568 35.4734 118.304 35.9991C118.04 36.5115 117.697 36.9791 117.288 37.3848C116.88 37.7985 116.407 38.1438 115.889 38.4073C115.364 38.6733 114.801 38.8586 114.221 38.9571C113.603 39.058 112.978 39.1125 112.352 39.1202C112.059 39.127 111.752 39.1309 111.454 39.1309L110.37 39.1329L8.68022 39.1309Z" fill="black"/>
<path d="M25.0043 20.3101C25.0151 19.4754 25.2368 18.6571 25.6488 17.9311C26.0609 17.2051 26.6498 16.5952 27.3609 16.158C26.9092 15.5129 26.3132 14.9819 25.6204 14.6074C24.9276 14.2328 24.1569 14.025 23.3697 14.0004C21.6905 13.8241 20.0626 15.0052 19.2068 15.0052C18.3346 15.0052 17.0171 14.0179 15.5983 14.047C14.6807 14.0767 13.7863 14.3435 13.0024 14.8216C12.2186 15.2997 11.5719 15.9726 11.1254 16.7749C9.19142 20.1233 10.634 25.0444 12.4866 27.751C13.4135 29.0763 14.4968 30.5568 15.9143 30.5043C17.3013 30.4468 17.8194 29.6198 19.4937 29.6198C21.1524 29.6198 21.6384 30.5043 23.0847 30.4709C24.573 30.4468 25.5108 29.1397 26.4052 27.8018C27.0711 26.8574 27.5836 25.8137 27.9236 24.7093C27.0589 24.3435 26.321 23.7314 25.8018 22.9491C25.2827 22.1668 25.0054 21.249 25.0043 20.3101Z" fill="white"/>
<path d="M22.2727 12.2191C23.0842 11.2449 23.484 9.99275 23.3872 8.72852C22.1474 8.85874 21.0021 9.4513 20.1796 10.3881C19.7775 10.8458 19.4695 11.3782 19.2732 11.955C19.077 12.5318 18.9963 13.1416 19.0359 13.7495C19.656 13.7559 20.2696 13.6215 20.8302 13.3564C21.3909 13.0913 21.8841 12.7025 22.2727 12.2191Z" fill="white"/>
<path d="M42.5378 27.1455H37.8044L36.6677 30.502H34.6628L39.1462 18.084H41.2292L45.7126 30.502H43.6736L42.5378 27.1455ZM38.2947 25.5967H42.0467L40.1971 20.1494H40.1453L38.2947 25.5967Z" fill="white"/>
<path d="M55.3953 25.9763C55.3953 28.7898 53.8894 30.5974 51.617 30.5974C51.0413 30.6275 50.4688 30.4949 49.965 30.2147C49.4612 29.9346 49.0465 29.5183 48.7683 29.0134H48.7253V33.4978H46.8669V21.4489H48.6658V22.9548H48.7C48.9909 22.4523 49.4127 22.0381 49.9203 21.7563C50.4279 21.4745 51.0025 21.3355 51.5828 21.3542C53.8806 21.3542 55.3953 23.1706 55.3953 25.9763ZM53.4851 25.9763C53.4851 24.1433 52.5379 22.9382 51.0926 22.9382C49.6726 22.9382 48.7176 24.1687 48.7176 25.9763C48.7176 27.8005 49.6726 29.0222 51.0926 29.0222C52.5379 29.0222 53.4851 27.8259 53.4851 25.9763Z" fill="white"/>
<path d="M65.3599 25.9763C65.3599 28.7898 63.854 30.5974 61.5816 30.5974C61.0059 30.6275 60.4334 30.4949 59.9296 30.2147C59.4258 29.9346 59.0111 29.5183 58.7329 29.0134H58.6899V33.4977H56.8315V21.4489H58.6304V22.9548H58.6645C58.9555 22.4523 59.3772 22.0381 59.8849 21.7563C60.3925 21.4744 60.967 21.3355 61.5474 21.3542C63.8452 21.3542 65.3599 23.1706 65.3599 25.9763ZM63.4497 25.9763C63.4497 24.1433 62.5025 22.9382 61.0572 22.9382C59.6372 22.9382 58.6822 24.1687 58.6822 25.9763C58.6822 27.8005 59.6372 29.0222 61.0572 29.0222C62.5025 29.0222 63.4497 27.8259 63.4497 25.9763Z" fill="white"/>
<path d="M71.9461 27.043C72.0838 28.2745 73.2801 29.083 74.9148 29.083C76.4812 29.083 77.6082 28.2744 77.6082 27.1641C77.6082 26.2002 76.9285 25.6231 75.3191 25.2275L73.7098 24.8398C71.4295 24.2891 70.3709 23.2227 70.3709 21.4922C70.3709 19.3496 72.2381 17.8779 74.8894 17.8779C77.5134 17.8779 79.3123 19.3496 79.3728 21.4922H77.4968C77.3845 20.2529 76.3601 19.5049 74.863 19.5049C73.366 19.5049 72.3416 20.2617 72.3416 21.3633C72.3416 22.2412 72.9959 22.7578 74.5964 23.1533L75.9646 23.4892C78.5124 24.0918 79.5711 25.1152 79.5711 26.9316C79.5711 29.2549 77.7205 30.7099 74.7771 30.7099C72.0232 30.7099 70.1638 29.289 70.0437 27.0429L71.9461 27.043Z" fill="white"/>
<path d="M83.5818 19.3076V21.4502H85.3035V22.9219H83.5818V27.9131C83.5818 28.6885 83.9265 29.0498 84.6833 29.0498C84.8877 29.0462 85.0918 29.0319 85.2947 29.0068V30.4697C84.9544 30.5333 84.6085 30.5621 84.2624 30.5556C82.4294 30.5556 81.7146 29.8672 81.7146 28.1113V22.9219H80.3982V21.4502H81.7146V19.3076H83.5818Z" fill="white"/>
<path d="M86.3005 25.9775C86.3005 23.1289 87.9783 21.3389 90.5945 21.3389C93.2195 21.3389 94.8894 23.1289 94.8894 25.9775C94.8894 28.834 93.2283 30.6162 90.5945 30.6162C87.9616 30.6162 86.3005 28.834 86.3005 25.9775ZM92.9958 25.9775C92.9958 24.0234 92.1003 22.8701 90.5945 22.8701C89.0886 22.8701 88.1941 24.0322 88.1941 25.9775C88.1941 27.9394 89.0886 29.084 90.5945 29.084C92.1003 29.084 92.9958 27.9394 92.9958 25.9775Z" fill="white"/>
<path d="M96.4214 21.4489H98.1939V22.9899H98.2369C98.3568 22.5086 98.6387 22.0832 99.0353 21.7854C99.4319 21.4875 99.9189 21.3352 100.415 21.3541C100.629 21.3534 100.842 21.3766 101.051 21.4235V23.1617C100.781 23.0791 100.499 23.0412 100.216 23.0494C99.9463 23.0385 99.6772 23.0861 99.4273 23.189C99.1775 23.2919 98.9529 23.4476 98.7689 23.6455C98.5849 23.8434 98.446 24.0787 98.3615 24.3354C98.2771 24.5921 98.2492 24.864 98.2798 25.1324V30.5026H96.4214L96.4214 21.4489Z" fill="white"/>
<path d="M109.62 27.8447C109.37 29.4883 107.769 30.6162 105.721 30.6162C103.088 30.6162 101.453 28.8516 101.453 26.0205C101.453 23.1807 103.096 21.3389 105.643 21.3389C108.148 21.3389 109.723 23.0596 109.723 25.8047V26.4414H103.329V26.5537C103.299 26.8869 103.341 27.2226 103.451 27.5384C103.561 27.8543 103.738 28.143 103.968 28.3856C104.198 28.6281 104.478 28.8189 104.787 28.9452C105.097 29.0715 105.43 29.1305 105.764 29.1182C106.204 29.1593 106.644 29.0576 107.021 28.8282C107.398 28.5987 107.69 28.2538 107.855 27.8447L109.62 27.8447ZM103.338 25.1426H107.864C107.881 24.843 107.835 24.5432 107.731 24.262C107.626 23.9808 107.464 23.7242 107.256 23.5084C107.047 23.2927 106.796 23.1223 106.519 23.0081C106.241 22.8939 105.943 22.8383 105.643 22.8447C105.341 22.8429 105.041 22.9011 104.761 23.0158C104.481 23.1306 104.226 23.2996 104.012 23.5133C103.797 23.7269 103.627 23.9809 103.512 24.2605C103.396 24.5402 103.337 24.8399 103.338 25.1426Z" fill="white"/>
<path d="M38.0613 8.73626C38.4509 8.7083 38.8419 8.76716 39.206 8.9086C39.5701 9.05003 39.8983 9.27051 40.1668 9.55414C40.4354 9.83776 40.6377 10.1775 40.7591 10.5487C40.8805 10.92 40.918 11.3136 40.8689 11.7011C40.8689 13.6074 39.8386 14.7031 38.0613 14.7031H35.906V8.73626H38.0613ZM36.8328 13.8593H37.9578C38.2362 13.8759 38.5148 13.8303 38.7733 13.7256C39.0319 13.621 39.2638 13.4601 39.4523 13.2545C39.6408 13.0489 39.7811 12.8039 39.8629 12.5373C39.9448 12.2707 39.9662 11.9892 39.9255 11.7133C39.9632 11.4384 39.9397 11.1587 39.8566 10.894C39.7734 10.6293 39.6328 10.3863 39.4448 10.1824C39.2567 9.97847 39.0258 9.81866 38.7688 9.71442C38.5117 9.61019 38.2347 9.5641 37.9578 9.57947H36.8328V13.8593Z" fill="white"/>
<path d="M41.9161 12.4506C41.8877 12.1547 41.9216 11.8561 42.0154 11.5741C42.1093 11.292 42.261 11.0327 42.461 10.8127C42.6609 10.5927 42.9046 10.4169 43.1765 10.2967C43.4483 10.1764 43.7423 10.1143 44.0396 10.1143C44.3369 10.1143 44.6308 10.1764 44.9027 10.2967C45.1745 10.4169 45.4183 10.5927 45.6182 10.8127C45.8181 11.0327 45.9699 11.292 46.0637 11.5741C46.1576 11.8561 46.1914 12.1547 46.1631 12.4506C46.192 12.7469 46.1585 13.0458 46.0649 13.3284C45.9713 13.6109 45.8197 13.8707 45.6197 14.0911C45.4197 14.3115 45.1758 14.4877 44.9037 14.6082C44.6315 14.7287 44.3372 14.791 44.0396 14.791C43.742 14.791 43.4476 14.7287 43.1755 14.6082C42.9034 14.4877 42.6595 14.3115 42.4595 14.0911C42.2595 13.8707 42.1078 13.6109 42.0142 13.3284C41.9207 13.0458 41.8872 12.7469 41.9161 12.4506ZM45.2491 12.4506C45.2491 11.4746 44.8106 10.9038 44.0411 10.9038C43.2686 10.9038 42.8341 11.4746 42.8341 12.4506C42.8341 13.4345 43.2686 14.0009 44.0411 14.0009C44.8106 14.0009 45.2491 13.4306 45.2491 12.4506Z" fill="white"/>
<path d="M51.8083 14.7041H50.8865L49.9558 11.3877H49.8855L48.9587 14.7041H48.0457L46.8044 10.2012H47.7058L48.5125 13.6372H48.5789L49.5046 10.2012H50.3572L51.283 13.6372H51.3533L52.156 10.2012H53.0447L51.8083 14.7041Z" fill="white"/>
<path d="M54.0889 10.2017H54.9443V10.917H55.0107C55.1234 10.6601 55.3134 10.4447 55.5543 10.3009C55.7951 10.1571 56.0749 10.0921 56.3545 10.1148C56.5736 10.0983 56.7936 10.1313 56.9982 10.2114C57.2028 10.2915 57.3867 10.4166 57.5364 10.5775C57.6861 10.7383 57.7977 10.9308 57.8629 11.1406C57.9281 11.3504 57.9452 11.5722 57.9131 11.7896V14.7046H57.0244V12.0127C57.0244 11.2891 56.71 10.9292 56.0527 10.9292C55.904 10.9223 55.7555 10.9476 55.6174 11.0035C55.4794 11.0593 55.355 11.1443 55.2529 11.2527C55.1508 11.3611 55.0733 11.4903 55.0258 11.6314C54.9782 11.7725 54.9618 11.9223 54.9775 12.0704V14.7046H54.0889L54.0889 10.2017Z" fill="white"/>
<path d="M59.3289 8.44336H60.2175V14.7041H59.3289V8.44336Z" fill="white"/>
<path d="M61.4531 12.4507C61.4248 12.1548 61.4587 11.8562 61.5526 11.5741C61.6464 11.292 61.7982 11.0327 61.9982 10.8127C62.1982 10.5927 62.4419 10.4169 62.7138 10.2967C62.9856 10.1764 63.2796 10.1143 63.5769 10.1143C63.8742 10.1143 64.1682 10.1764 64.4401 10.2967C64.712 10.4169 64.9557 10.5927 65.1556 10.8127C65.3556 11.0327 65.5074 11.292 65.6012 11.5741C65.6951 11.8562 65.729 12.1548 65.7007 12.4507C65.7295 12.747 65.696 13.0459 65.6024 13.3285C65.5088 13.611 65.3571 13.8708 65.1571 14.0912C64.9571 14.3116 64.7132 14.4877 64.441 14.6083C64.1689 14.7288 63.8746 14.7911 63.5769 14.7911C63.2793 14.7911 62.9849 14.7288 62.7128 14.6083C62.4407 14.4877 62.1968 14.3116 61.9968 14.0912C61.7967 13.8708 61.6451 13.611 61.5514 13.3285C61.4578 13.0459 61.4243 12.747 61.4531 12.4507ZM64.7861 12.4507C64.7861 11.4746 64.3477 10.9039 63.5781 10.9039C62.8057 10.9039 62.3711 11.4747 62.3711 12.4507C62.3711 13.4346 62.8057 14.001 63.5781 14.001C64.3477 14.001 64.7861 13.4307 64.7861 12.4507Z" fill="white"/>
<path d="M66.636 13.4307C66.636 12.6201 67.2395 12.1528 68.3108 12.0864L69.5305 12.0161V11.6274C69.5305 11.1518 69.2161 10.8833 68.6086 10.8833C68.1126 10.8833 67.7688 11.0654 67.6702 11.3838H66.8098C66.9006 10.6103 67.6282 10.1143 68.6497 10.1143C69.7786 10.1143 70.4153 10.6763 70.4153 11.6274V14.7041H69.5598V14.0713H69.4895C69.3468 14.2983 69.1464 14.4833 68.9088 14.6075C68.6711 14.7318 68.4048 14.7907 68.137 14.7783C67.9479 14.798 67.7569 14.7778 67.5761 14.7191C67.3953 14.6604 67.2289 14.5645 67.0875 14.4375C66.9461 14.3105 66.8328 14.1553 66.7551 13.9819C66.6773 13.8085 66.6367 13.6207 66.636 13.4307ZM69.5305 13.0459V12.6694L68.4309 12.7397C67.8108 12.7812 67.5295 12.9922 67.5295 13.3891C67.5295 13.7944 67.8811 14.0303 68.3645 14.0303C68.5062 14.0446 68.6493 14.0303 68.7853 13.9882C68.9213 13.9461 69.0474 13.8771 69.1562 13.7853C69.265 13.6934 69.3542 13.5806 69.4185 13.4536C69.4828 13.3266 69.5209 13.1879 69.5305 13.0459Z" fill="white"/>
<path d="M71.5835 12.4507C71.5835 11.0278 72.3149 10.1265 73.4526 10.1265C73.7341 10.1135 74.0133 10.1809 74.2579 10.3208C74.5024 10.4607 74.702 10.6673 74.8335 10.9165H74.8999V8.44336H75.7886V14.7041H74.937V13.9927H74.8667C74.7251 14.2402 74.5185 14.4442 74.2692 14.5827C74.02 14.7212 73.7376 14.7888 73.4526 14.7783C72.3071 14.7784 71.5835 13.877 71.5835 12.4507ZM72.5015 12.4507C72.5015 13.4058 72.9517 13.9805 73.7046 13.9805C74.4536 13.9805 74.9165 13.3975 74.9165 12.4546C74.9165 11.5161 74.4488 10.9248 73.7046 10.9248C72.9565 10.9248 72.5015 11.5034 72.5015 12.4507Z" fill="white"/>
<path d="M79.4654 12.4506C79.4371 12.1547 79.4709 11.8561 79.5647 11.5741C79.6586 11.292 79.8103 11.0327 80.0103 10.8127C80.2102 10.5927 80.4539 10.4169 80.7258 10.2967C80.9976 10.1764 81.2916 10.1143 81.5889 10.1143C81.8862 10.1143 82.1802 10.1764 82.452 10.2967C82.7239 10.4169 82.9676 10.5927 83.1675 10.8127C83.3675 11.0327 83.5192 11.292 83.613 11.5741C83.7069 11.8561 83.7407 12.1547 83.7124 12.4506C83.7413 12.7469 83.7078 13.0458 83.6142 13.3284C83.5206 13.6109 83.369 13.8707 83.169 14.0911C82.969 14.3115 82.7251 14.4877 82.453 14.6082C82.1809 14.7287 81.8865 14.791 81.5889 14.791C81.2913 14.791 80.9969 14.7287 80.7248 14.6082C80.4527 14.4877 80.2088 14.3115 80.0088 14.0911C79.8088 13.8707 79.6572 13.6109 79.5636 13.3284C79.47 13.0458 79.4365 12.7469 79.4654 12.4506ZM82.7984 12.4506C82.7984 11.4746 82.3599 10.9038 81.5904 10.9038C80.8179 10.9038 80.3834 11.4746 80.3834 12.4506C80.3834 13.4345 80.8179 14.0009 81.5904 14.0009C82.3599 14.0009 82.7984 13.4306 82.7984 12.4506Z" fill="white"/>
<path d="M84.9048 10.2017H85.7603V10.917H85.8267C85.9393 10.6601 86.1293 10.4447 86.3702 10.3009C86.6111 10.1571 86.8908 10.0921 87.1704 10.1148C87.3895 10.0983 87.6095 10.1313 87.8141 10.2114C88.0187 10.2915 88.2027 10.4166 88.3523 10.5775C88.502 10.7383 88.6136 10.9308 88.6788 11.1406C88.744 11.3504 88.7612 11.5722 88.729 11.7896V14.7046H87.8403V12.0127C87.8403 11.2891 87.5259 10.9292 86.8687 10.9292C86.7199 10.9223 86.5714 10.9476 86.4333 11.0035C86.2953 11.0593 86.1709 11.1443 86.0688 11.2527C85.9667 11.3611 85.8892 11.4903 85.8417 11.6314C85.7941 11.7725 85.7777 11.9223 85.7935 12.0704V14.7046H84.9048V10.2017Z" fill="white"/>
<path d="M93.7505 9.0791V10.2207H94.7261V10.9692H93.7505V13.2847C93.7505 13.7564 93.9448 13.9629 94.3872 13.9629C94.5005 13.9625 94.6136 13.9557 94.7261 13.9424V14.6826C94.5665 14.7112 94.4048 14.7264 94.2427 14.728C93.2544 14.728 92.8608 14.3804 92.8608 13.5122V10.9692H92.146V10.2207H92.8608V9.0791H93.7505Z" fill="white"/>
<path d="M95.9399 8.44336H96.8208V10.9248H96.8911C97.0092 10.6655 97.2045 10.4489 97.4502 10.3046C97.6959 10.1602 97.9801 10.0951 98.2641 10.1182C98.4821 10.1063 98.7 10.1427 98.9022 10.2247C99.1045 10.3068 99.2862 10.4325 99.4343 10.5928C99.5824 10.7531 99.6933 10.9442 99.7591 11.1523C99.8249 11.3605 99.844 11.5805 99.8149 11.7969V14.7041H98.9253V12.0161C98.9253 11.2969 98.5903 10.9326 97.9624 10.9326C97.8097 10.9201 97.6561 10.9411 97.5123 10.9941C97.3685 11.0472 97.2381 11.131 97.1301 11.2398C97.0221 11.3485 96.9392 11.4795 96.8871 11.6236C96.835 11.7678 96.8151 11.9216 96.8287 12.0742V14.7041H95.94L95.9399 8.44336Z" fill="white"/>
<path d="M104.996 13.4884C104.876 13.8999 104.614 14.2559 104.257 14.494C103.901 14.7322 103.472 14.8373 103.045 14.7911C102.749 14.7989 102.454 14.7421 102.181 14.6246C101.909 14.507 101.665 14.3316 101.467 14.1105C101.269 13.8893 101.122 13.6278 101.035 13.344C100.949 13.0601 100.925 12.7609 100.965 12.4669C100.926 12.172 100.95 11.8721 101.037 11.5874C101.123 11.3027 101.27 11.0399 101.467 10.8169C101.663 10.5938 101.906 10.4156 102.178 10.2944C102.449 10.1732 102.744 10.1118 103.041 10.1143C104.294 10.1143 105.05 10.9703 105.05 12.3843V12.6944H101.871V12.7442C101.857 12.9095 101.877 13.0758 101.931 13.2325C101.986 13.3893 102.072 13.533 102.185 13.6545C102.298 13.7759 102.435 13.8724 102.587 13.9378C102.74 14.0032 102.904 14.0361 103.07 14.0342C103.282 14.0597 103.498 14.0215 103.688 13.9243C103.879 13.8271 104.037 13.6753 104.141 13.4883L104.996 13.4884ZM101.87 12.0372H104.145C104.156 11.8861 104.136 11.7343 104.085 11.5915C104.034 11.4488 103.953 11.3183 103.849 11.2085C103.745 11.0986 103.618 11.0118 103.478 10.9536C103.339 10.8955 103.188 10.8672 103.037 10.8707C102.883 10.8688 102.73 10.8976 102.588 10.9556C102.446 11.0135 102.316 11.0994 102.208 11.2081C102.099 11.3168 102.013 11.4462 101.955 11.5885C101.897 11.7309 101.868 11.8835 101.87 12.0372Z" fill="white"/>
</g>
<defs>
<clipPath id="clip0_7999_109084">
<rect width="119.664" height="40" fill="white" transform="translate(0.235352 0.00585938)"/>
</clipPath>
</defs>
</svg>
