<svg version="1.1" id="Layer_1" xmlns="http://www.w3.org/2000/svg" xmlns:xlink="http://www.w3.org/1999/xlink" x="0px" y="0px" width="100%" viewBox="0 0 1024 880" enable-background="new 0 0 1024 880" xml:space="preserve">
<path opacity="1.000000" stroke="none" d=" M467.987854,622.261108   C450.930115,617.864929 434.991180,611.842834 420.215240,603.033142   C420.909943,599.820740 423.456879,599.775146 425.283905,598.989990   C463.933319,582.380127 499.210144,560.624878 528.715454,530.333496   C562.990784,495.145081 584.976257,453.461121 593.674072,404.958405   C599.405823,372.995453 598.861755,341.071381 593.210205,309.152527   C582.221313,247.089508 555.078308,192.423889 517.161926,142.670151   C516.254761,141.479752 515.354797,140.282654 514.498474,139.055847   C514.333618,138.819672 514.389160,138.429703 514.334473,138.051620   C515.947266,136.917587 516.743530,138.420380 517.599426,139.191559   C571.664917,187.903641 619.127869,242.107208 655.141113,305.698578   C672.705872,336.713959 686.570435,369.281342 693.680420,404.402893   C701.702759,444.031006 700.604248,483.063354 682.781372,520.064148   C658.252258,570.987122 618.507690,604.663391 564.155457,620.514099   C532.497498,629.746521 500.472107,629.904602 467.987854,622.261108  M626.843140,297.572723   C619.510864,280.687439 610.782532,264.632233 598.944885,250.418900   C599.072021,251.448380 599.519836,252.293854 599.985657,253.129211   C618.477234,286.294006 629.440674,321.851776 633.199158,359.569672   C635.686218,384.529144 634.997375,409.472290 630.190491,434.152191   C624.784729,461.906799 615.431824,488.027771 597.776794,510.667236   C589.090759,521.805481 579.102417,530.230896 564.312012,532.034790   C554.214355,533.266296 545.115234,537.667542 537.828064,545.001648   C515.915222,567.055542 490.708954,584.570740 463.530487,599.421997   C462.351044,600.066467 460.530304,600.200928 460.362030,602.331909   C466.474701,605.104614 472.031616,606.211853 478.599213,602.296570   C499.938995,589.575195 520.918030,576.369019 540.622559,561.201355   C541.949646,560.179810 543.031677,558.486938 546.275269,558.778625   C530.375366,578.947205 511.172882,594.234314 490.639435,609.188110   C503.424866,611.446472 515.232361,610.905212 527.021118,610.539307   C532.349304,610.374023 536.993835,608.400513 540.913086,604.634949   C544.874451,600.828979 549.028687,597.223572 553.106079,593.538818   C556.595520,590.385437 560.095886,587.244141 563.591492,584.097473   C563.952698,584.424377 564.313843,584.751221 564.675049,585.078125   C560.887146,592.693420 555.158508,599.076782 549.851868,606.508545   C555.649719,606.063049 560.510315,604.530762 565.327515,602.896606   C587.974121,595.213867 608.921204,584.532166 626.027832,567.436035   C632.790344,560.677734 632.248169,556.463135 624.661011,550.660828   C621.209229,548.021057 617.422974,545.932678 613.472900,544.110291   C606.644531,540.960083 599.467712,538.805603 592.337463,536.507568   C591.334778,536.184387 589.863586,536.416870 589.847961,534.130676   C596.971008,533.545166 603.651672,536.166992 611.852417,537.541748   C605.563293,531.009399 608.471680,526.145935 611.902954,520.658081   C639.339417,476.777130 651.380066,429.108429 646.847717,377.346771   C644.445374,349.910126 637.899658,323.585785 626.843140,297.572723  z" fill="#23953D"/>
<path opacity="1.000000" stroke="none" d=" M485.181976,538.240479   C458.679474,558.361816 429.647797,573.043335 399.036713,584.831543   C396.294189,585.887573 394.362274,585.429565 392.250732,583.606934   C358.945404,554.857971 336.807251,519.602173 329.896606,475.684479   C324.112915,438.928528 330.419739,403.463409 342.367920,368.725891   C357.419098,324.967010 380.825378,285.762207 408.042603,248.656128   C432.545837,215.250092 460.232727,184.660706 490.184845,156.086365   C490.879517,155.423615 491.679199,154.870911 492.738861,154.018234   C493.722992,156.341980 492.151733,157.358444 491.266327,158.505539   C461.226776,197.424271 436.976746,239.503555 421.415894,286.331970   C409.842926,321.159332 404.329193,356.943542 407.499512,393.512695   C412.487518,451.048920 436.454712,498.516235 484.737518,532.165894   C487.363953,533.996277 489.027374,535.594727 485.181976,538.240479  M362.356110,391.868866   C362.298431,393.700897 362.321198,395.539551 362.170776,397.363953   C360.428223,418.494507 362.973358,439.156982 368.641449,459.531311   C375.126892,482.843628 385.528198,504.348145 398.242737,524.821960   C399.101593,526.204956 400.757080,527.773254 399.808075,529.317078   C396.952362,533.963074 399.189331,538.125610 400.861023,542.154663   C402.365662,545.781128 401.397583,547.557434 398.125000,549.249817   C393.601227,551.589233 388.914703,553.754211 384.960815,557.061096   C390.374329,565.184814 390.931335,565.341064 398.732849,561.027710   C415.790405,551.597107 432.857544,542.183594 449.883514,532.696228   C452.150757,531.432861 454.782715,530.553894 456.199677,528.118774   C451.399200,520.631958 450.691406,520.425232 443.343689,524.357788   C439.672913,526.322449 435.876648,528.095337 432.386475,530.342224   C429.127380,532.440369 426.786346,532.116516 424.196075,529.225830   C421.440002,526.150024 418.474030,522.708313 414.014404,522.607910   C411.105255,522.542542 409.897644,521.126160 408.549377,519.149902   C403.379883,511.572449 398.563324,503.797455 394.461090,495.575592   C372.961212,452.484192 365.688660,407.323120 374.755127,359.821442   C377.844116,343.637299 382.622009,327.939758 389.181976,312.765625   C384.713531,321.092651 380.352539,329.465393 376.588013,338.098236   C369.225433,354.982178 364.885986,372.730255 362.356110,391.868866  M440.838684,543.428589   C426.111420,551.666504 410.972412,559.203003 396.607056,568.057495   C397.012329,568.771606 397.417603,569.485718 397.822876,570.199768   C419.604218,558.177185 441.385559,546.154602 463.166901,534.132019   C462.768646,533.356262 462.370422,532.580566 461.972168,531.804810   C455.138184,535.554626 448.304169,539.304504 440.838684,543.428589  z" fill="#23953D"/>
<path opacity="1.000000" stroke="none" d=" M518.876343,367.258728   C521.805786,381.800323 528.412109,393.903259 538.713684,403.949677   C540.827393,406.011078 542.386353,407.877686 540.323730,410.766510   C538.216553,413.717712 536.066650,411.528870 534.230103,410.569366   C521.241089,403.783447 511.635925,393.753876 505.574799,380.342377   C503.111847,374.892639 500.703064,374.594635 496.525482,378.948639   C492.982056,382.641602 490.359436,396.770721 492.316010,401.364502   C492.827423,402.565277 493.749084,403.204895 494.883270,403.538757   C510.730591,408.204163 516.055664,420.842072 518.198853,435.313995   C520.363770,449.932373 521.529541,464.696167 523.408325,479.360992   C523.974731,483.781372 525.214783,488.164551 526.609558,492.412689   C527.566895,495.328857 527.115112,497.461823 525.170044,499.712921   C518.088013,507.909180 510.918030,515.999084 502.765106,523.185242   C500.593628,525.099243 498.948669,525.125183 496.636169,523.608948   C465.762512,503.366547 444.113770,475.898193 431.665009,441.136139   C430.709351,438.467621 431.616302,436.718231 433.265564,434.867920   C438.596497,428.886902 443.434753,422.537781 447.448883,415.581787   C458.148407,397.040741 456.750458,375.823608 443.831635,359.980713   C440.848724,356.322693 436.901611,353.754913 433.550537,350.518158   C423.148438,340.470825 424.481384,330.595917 437.192108,323.671051   C447.930573,317.820679 459.858307,316.011810 471.631348,314.031250   C485.899841,311.630829 500.352753,310.231323 514.836853,310.831635   C524.091187,311.215149 533.467834,311.620941 542.262329,315.299530   C545.751099,316.758820 548.908447,318.538361 550.251282,322.300018   C550.966858,324.304840 552.408508,324.619446 554.167297,324.625549   C556.999451,324.635406 559.837036,324.759583 562.662537,324.626984   C567.425842,324.403473 569.318970,326.848206 569.264160,331.309601   C569.245728,332.808807 569.282654,334.308777 569.262024,335.807922   C569.174072,342.199615 567.593262,343.878418 561.332642,343.966064   C556.420166,344.034821 551.546448,343.120483 548.431152,348.942657   C546.917175,351.772034 542.777649,352.118378 539.384949,352.275482   C536.224792,352.421875 533.040161,352.296387 529.902954,352.632538   C520.212219,353.671051 517.598328,357.087036 518.876343,367.258728  z" fill="#3582AE"/>
<path opacity="1.000000" stroke="none" d=" M670.292847,655.267212   C670.796143,660.716736 669.133545,664.942444 665.270386,668.105835   C663.247864,669.762024 663.281494,671.232544 664.580200,673.204895   C666.760071,676.515503 668.247070,680.381958 672.085327,682.314636   C674.261597,683.410278 673.796082,685.140015 673.457886,687.032104   C673.098511,689.042725 671.977661,689.990479 670.111267,690.051636   C659.290894,690.406616 656.658447,692.037842 652.184021,679.992310   C651.419800,677.934998 651.118042,675.437439 648.383972,674.187012   C646.403870,677.278320 645.876404,679.972656 649.568970,681.582153   C652.045227,682.661560 652.147827,684.271179 651.777893,686.392517   C651.391724,688.607178 650.020386,689.300232 647.883484,689.339478   C641.901794,689.449280 635.919800,689.006470 629.930725,689.720703   C627.022827,690.067505 625.448364,685.916504 628.249268,683.590088   C633.059814,679.594360 631.763977,674.686646 631.928101,669.893555   C632.070374,665.736938 631.969543,661.571472 631.948303,657.409973   C631.934082,654.624512 632.378418,651.797668 628.654175,650.531677   C626.686951,649.862854 627.593994,647.651733 627.768738,646.062256   C627.979309,644.147217 629.382996,643.720032 631.011475,643.721863   C639.832886,643.732117 648.671814,643.419495 657.470459,643.876221   C665.027649,644.268494 668.792358,647.928772 670.292847,655.267212  M652.451477,663.595703   C654.936584,662.027344 655.175659,659.578430 654.763184,657.062561   C654.272522,654.069458 650.212952,652.059998 648.451782,653.964478   C646.337463,656.250977 647.187317,659.314697 647.515503,661.982117   C647.797974,664.278748 649.899109,664.286804 652.451477,663.595703  z" fill="#3582AE"/>
<path opacity="1.000000" stroke="none" d=" M191.213074,683.359863   C187.917984,675.854004 190.487930,670.453186 196.279282,666.293396   C196.522736,664.180786 195.095184,663.027039 194.324524,661.612366   C190.521118,654.630615 193.121414,647.386658 200.529266,644.516846   C206.313065,642.276123 212.188385,642.348755 218.177780,643.638977   C220.504486,644.140259 222.251312,645.066711 221.220993,647.550293   C220.128723,650.183167 220.242752,654.245178 215.659912,653.883423   C215.035690,653.834106 214.461029,653.319458 213.835022,653.101990   C211.155380,652.171387 208.066956,650.794434 206.093063,653.673828   C203.966248,656.776306 206.223389,659.407959 208.523346,661.434631   C212.226486,664.697754 216.118134,667.746887 220.066803,670.999023   C221.286057,666.075562 221.160172,665.554626 216.957169,665.312805   C213.488724,665.113220 212.876556,663.201172 212.750046,660.426758   C212.613007,657.421387 214.502914,656.845459 216.897690,656.711487   C222.539978,656.395996 228.177933,655.901123 233.823395,655.800049   C235.796097,655.764709 239.034470,654.291199 239.292709,658.083679   C239.492188,661.013062 238.489532,664.649841 235.315781,664.676392   C229.104691,664.728271 230.927979,669.616211 229.442886,672.597473   C227.382401,676.733765 228.859589,679.292358 232.329803,681.784668   C234.260025,683.170898 238.060883,684.596436 234.900528,688.310913   C230.827637,693.097900 227.521912,693.960754 224.237335,690.453613   C221.088791,687.091736 218.536957,686.393555 214.022629,688.599487   C206.065079,692.487793 196.582703,689.938660 191.213074,683.359863  M208.904617,680.970154   C209.831375,680.818237 210.910202,681.139954 211.565628,680.130554   C208.767212,675.807373 206.959976,674.272766 203.068451,672.909485   C201.324661,678.610657 202.260361,680.089417 208.904617,680.970154  z" fill="#3582AE"/>
<path opacity="1.000000" stroke="none" d=" M343.307983,664.086121   C343.270996,683.891663 330.330994,694.408325 313.068512,689.130493   C307.074707,687.297913 303.098602,683.363770 301.050873,677.473511   C299.088135,671.827698 298.956360,665.949341 300.109589,660.245361   C303.287903,644.525269 322.657532,637.162598 335.853149,646.543030   C341.671143,650.678955 343.337982,656.824097 343.307983,664.086121  M316.770172,672.600830   C317.731873,675.569458 317.194519,680.122375 322.010590,679.641663   C326.630829,679.180420 326.501190,674.942322 326.632233,671.500183   C326.789734,667.363159 326.926453,663.202942 325.833649,659.118042   C325.122162,656.458435 324.369659,653.516602 321.078735,653.648804   C317.538055,653.790833 316.703156,657.044861 316.487946,659.833130   C316.182739,663.787415 316.490326,667.789001 316.770172,672.600830  z" fill="#3582AE"/>
<path opacity="1.000000" stroke="none" d=" M397.951202,651.071716   C395.400848,649.571411 395.554749,647.518738 396.159149,645.574646   C396.876587,643.266968 399.015442,643.730347 400.804688,643.667603   C410.945862,643.312317 421.124695,644.501343 431.238647,642.908386   C432.381622,642.728333 433.915375,642.577087 434.446564,643.719727   C436.501221,648.138977 434.355682,652.544189 433.844299,656.892822   C433.537292,659.503540 430.516418,659.100037 428.404663,659.240662   C427.101074,659.327332 425.787018,659.256714 424.866791,659.256714   C423.276489,657.987793 423.826416,656.419067 423.171387,655.273987   C421.954010,653.145874 419.894379,652.900024 417.932831,653.419556   C414.907776,654.220764 415.421021,656.982056 415.400238,659.232483   C415.378174,661.618591 417.217438,661.680237 418.949799,661.620728   C420.110382,661.580811 421.264832,661.385803 422.424500,661.290283   C425.318756,661.051697 428.851898,659.808105 429.058685,664.628723   C429.281616,669.825806 427.805115,671.105469 422.886169,671.236816   C420.285950,671.306274 416.782562,669.632507 415.443909,673.255554   C414.718445,675.218994 413.978546,678.307373 416.778137,679.420837   C419.532440,680.516235 422.438385,680.060364 423.950867,676.808044   C424.823486,674.931641 425.047668,672.891113 428.056824,672.606323   C435.191711,671.931030 436.038269,672.609253 434.852600,679.722717   C433.218872,689.524231 433.219635,689.430298 423.109650,689.350220   C415.449310,689.289612 407.786041,689.472961 400.125732,689.628479   C398.376617,689.664062 396.257019,690.859985 395.347595,688.482361   C394.612518,686.560486 394.788330,684.043091 396.510651,682.971069   C400.043854,680.771973 399.883972,677.571594 399.886047,674.218689   C399.889648,668.385559 399.985779,662.552185 399.948120,656.719543   C399.935669,654.786560 400.374054,652.629395 397.951202,651.071716  z" fill="#3582AE"/>
<path opacity="1.000000" stroke="none" d=" M835.063660,658.084351   C830.843567,659.177673 826.691650,661.498596 824.872009,655.142212   C824.178955,652.721069 821.250793,652.818909 819.204041,653.550537   C816.507812,654.514282 817.416565,657.174011 817.385864,659.210388   C817.350769,661.546570 819.162354,661.696533 820.914490,661.648376   C822.075439,661.616455 823.232483,661.461487 824.392822,661.383789   C827.063354,661.205017 830.424561,659.706482 830.987732,664.167297   C831.614563,669.131958 829.652405,671.032959 824.779297,671.199219   C822.185364,671.287842 818.694336,669.669556 817.357483,673.299255   C816.612305,675.322632 816.024536,678.374634 818.762756,679.445312   C821.448669,680.495667 824.421570,680.225952 825.959351,676.936768   C826.822998,675.089539 826.895813,672.948364 829.940430,672.624573   C837.045837,671.868835 837.838928,672.489746 836.681152,679.629028   C835.069519,689.566101 835.070190,689.426147 825.150879,689.380249   C817.342285,689.344116 809.517029,688.843689 801.719727,689.737000   C800.101746,689.922424 798.182007,690.630249 797.368469,688.571472   C796.604004,686.636658 796.716675,684.127380 798.349487,683.010742   C802.075623,680.462402 801.796692,676.896484 801.801147,673.231995   C801.807129,668.406738 801.917603,663.581482 801.902832,658.756470   C801.892944,655.528503 802.671448,652.115723 798.764893,650.074707   C797.150940,649.231506 797.659485,647.059204 798.123596,645.472168   C798.655151,643.654480 800.322876,643.678406 801.830444,643.675171   C809.650818,643.658508 817.471436,643.697876 825.291504,643.646057   C827.444031,643.631836 829.608948,643.479614 831.743774,643.202515   C836.758667,642.551636 837.812073,643.427551 836.906799,648.534851   C836.359436,651.622498 836.864807,654.883179 835.063660,658.084351  z" fill="#3582AE"/>
<path opacity="1.000000" stroke="none" d=" M615.620483,665.752197   C615.727539,670.310242 613.718445,671.858215 609.704834,671.207214   C608.566223,671.022522 607.376160,671.088989 606.213318,671.134460   C604.033875,671.219666 601.619629,671.110352 601.470154,674.220764   C601.368286,676.340393 600.914368,678.948242 603.756775,679.581116   C606.362976,680.161438 609.708496,680.379456 610.475647,677.075867   C611.682617,671.878479 615.512512,672.745422 619.015381,672.496765   C621.398315,672.327576 622.370056,673.551270 622.170532,675.833862   C622.112732,676.495361 621.979614,677.150513 621.876587,677.807861   C620.059998,689.402588 620.059204,689.291687 608.340820,689.359314   C600.863342,689.402588 593.360718,688.721558 585.904053,689.921204   C584.438049,690.156982 582.618835,690.355103 582.131042,688.473083   C581.627563,686.531006 581.538147,684.047302 583.280945,682.902893   C586.876404,680.541992 586.751099,677.207397 586.706604,673.658936   C586.637634,668.164795 586.709045,662.668884 586.718567,657.173767   C586.723145,654.541138 587.092346,651.973145 583.863953,650.445374   C581.957092,649.543030 582.617004,647.173340 583.034668,645.427002   C583.492981,643.510803 585.244751,643.729553 586.718262,643.676331   C597.348755,643.292053 608.020203,644.539612 618.621521,642.864990   C619.611206,642.708679 620.615051,642.903198 621.374939,643.709656   C622.175720,644.559448 621.643616,655.896851 620.585999,657.323853   C618.540833,660.083252 615.466187,659.129517 612.737305,659.241211   C610.627197,659.327637 610.688171,657.477661 610.272827,656.088257   C609.390686,653.137817 607.034302,652.905334 604.642761,653.417847   C601.680725,654.052551 602.330444,656.682373 602.271729,658.737305   C602.186890,661.707764 604.398071,661.695923 606.454529,661.587036   C608.109436,661.499390 609.747192,661.099304 611.402222,660.999146   C614.423645,660.816528 616.313049,661.877686 615.620483,665.752197  z" fill="#3582AE"/>
<path opacity="1.000000" stroke="none" d=" M391.262360,647.640137   C385.622437,655.299927 387.638031,663.814453 387.480133,671.879150   C387.348236,678.614075 386.335571,684.759827 379.603058,687.833435   C371.938354,691.332642 363.981720,691.513672 356.559845,687.174255   C351.903107,684.451599 351.185486,679.342712 350.970612,674.446411   C350.744324,669.289978 350.976044,664.114990 350.903320,658.949585   C350.858307,655.750061 351.514191,652.617920 348.127014,650.012817   C345.689941,648.138428 347.916565,643.871033 351.259979,643.746643   C356.086609,643.567078 360.925629,643.620667 365.757141,643.704346   C370.163025,643.780579 372.063843,646.880737 369.170715,650.054993   C366.148956,653.370300 366.302948,656.908325 366.302582,660.704468   C366.302155,665.370422 366.208588,670.038147 366.312836,674.701599   C366.374847,677.474976 367.540192,679.666809 370.698517,679.712158   C374.046478,679.760376 374.809601,677.384949 374.824646,674.637695   C374.860229,668.138489 374.827362,661.639038 374.826355,655.139648   C374.826080,653.414673 374.512939,651.908142 372.951782,650.773560   C371.130707,649.450073 371.577515,647.533081 372.116638,645.750061   C372.730499,643.719971 374.450623,643.653809 376.171722,643.662170   C380.004761,643.680725 383.838959,643.750854 387.670532,643.682129   C390.167236,643.637329 391.441559,644.635986 391.262360,647.640137  z" fill="#3582AE"/>
<path opacity="1.000000" stroke="none" d=" M576.434326,647.169678   C576.100281,649.683350 575.541138,651.800598 575.437500,653.939880   C575.288330,657.020691 574.817993,659.266357 570.962830,659.788635   C567.465332,660.262390 565.186951,660.039856 564.327576,656.043152   C563.960938,654.338379 562.225159,653.473694 560.374329,653.694458   C559.003723,653.857910 557.677612,654.497620 557.510559,656.034485   C557.283752,658.121094 559.055054,658.809753 560.522095,659.528015   C563.655334,661.062195 566.936035,662.318970 569.978455,664.009460   C574.459473,666.499573 577.473389,670.121216 577.194458,675.612366   C576.914856,681.115967 574.096069,684.964355 569.139954,687.257874   C560.691284,691.167480 552.106262,691.163879 543.436646,688.049011   C541.099060,687.209167 539.952759,685.741028 540.521362,683.079834   C540.900940,681.303528 541.061340,679.442261 541.029053,677.624207   C540.965576,674.052185 543.200928,673.186157 546.117065,672.854004   C548.673767,672.562744 551.123901,672.036621 551.741211,675.765991   C552.045349,677.603333 553.393921,679.089417 555.372986,679.502991   C557.226562,679.890442 559.246887,679.908508 560.081177,677.808899   C560.842896,675.891907 559.003357,675.202332 557.760681,674.546021   C554.090332,672.607727 550.140381,671.130920 546.666992,668.901550   C538.540710,663.685730 538.292480,652.586914 546.298523,647.146057   C555.134766,641.141052 564.867493,642.058167 574.604919,644.595825   C575.627808,644.862488 576.226929,645.708252 576.434326,647.169678  z" fill="#3582AE"/>
<path opacity="1.000000" stroke="none" d=" M458.183350,674.699829   C454.439880,672.830078 450.868073,671.369507 447.586121,669.420776   C438.214691,663.856506 438.203064,651.689392 447.682190,646.278442   C456.000580,641.530212 464.937317,642.031555 473.886688,644.342834   C475.751373,644.824463 476.676453,646.092590 476.412292,648.064453   C476.125244,650.207397 475.540649,652.343689 475.536041,654.483826   C475.528473,658.003113 473.947083,659.339172 470.509857,659.806458   C467.330048,660.238708 465.395416,659.842407 464.578674,656.412781   C464.102417,654.412964 462.414124,653.468567 460.353241,653.728760   C458.992249,653.900513 457.630005,654.569031 457.563873,656.135437   C457.477539,658.180847 459.304535,658.828979 460.752136,659.552246   C463.878113,661.113953 467.201172,662.319946 470.204498,664.079468   C474.599487,666.654419 477.608459,670.293823 477.248749,675.822021   C476.888641,681.356506 473.991333,685.219666 469.051422,687.415833   C460.751404,691.105774 452.290344,691.191162 443.755371,688.080566   C441.144958,687.129272 439.914795,685.495605 440.650299,682.743774   C441.697144,678.827087 439.936798,673.196045 446.868988,672.827942   C449.310608,672.698364 450.989380,672.862610 451.741089,675.663330   C452.381409,678.049255 454.027649,679.705078 456.818146,679.666748   C458.226471,679.647400 459.582306,679.390381 460.203125,678.019409   C460.950287,676.369507 459.555817,675.665649 458.183350,674.699829  z" fill="#3582AE"/>
<path opacity="1.000000" stroke="none" d=" M709.285522,677.131592   C708.049194,685.982727 704.371155,690.360352 694.672485,689.999512   C686.399292,689.691711 686.248169,690.869690 684.244385,682.781677   C682.363953,675.191833 680.607788,667.570374 678.873047,659.945496   C678.095398,656.527283 677.525269,653.110229 674.648071,650.595520   C673.053833,649.202148 673.523804,647.143982 673.992004,645.414551   C674.576111,643.256775 676.604858,643.730103 678.192261,643.710266   C683.357788,643.645752 688.524536,643.655701 693.690674,643.668945   C695.329224,643.673157 697.284180,643.380920 697.728088,645.605042   C698.120178,647.569763 698.378601,649.954651 696.151001,650.898438   C693.212585,652.143372 693.432861,653.999817 693.904358,656.552429   C694.986389,662.410706 695.738647,668.329834 697.159668,674.291870   C699.999695,667.632996 701.423218,660.658875 702.618896,653.631531   C702.844543,652.305359 701.910034,651.534607 700.744568,651.005493   C698.345093,649.916199 698.611511,647.860291 699.074097,645.860962   C699.638489,643.421936 701.668762,643.675415 703.497253,643.673340   C707.330322,643.669006 711.165039,643.616821 714.995972,643.710876   C718.973206,643.808472 720.666260,646.082214 718.725830,649.475159   C713.849182,658.001770 712.612793,667.698669 709.285522,677.131592  z" fill="#3582AE"/>
<path opacity="1.000000" stroke="none" d=" M861.869446,678.326782   C862.712830,674.943848 859.958618,674.665222 858.245911,673.707825   C855.055359,671.924377 851.503662,670.719299 848.495728,668.690186   C840.564209,663.339783 840.441956,652.730957 848.344971,647.286255   C856.834839,641.437256 866.229675,641.958069 875.707153,644.429138   C877.909546,645.003418 878.469788,646.671387 878.242126,648.682373   C877.961487,651.161560 877.425781,653.618286 877.257690,656.102173   C877.028137,659.495056 874.406555,659.244019 872.204529,659.709900   C869.936157,660.189819 867.795837,660.302673 866.938477,657.493530   C866.593689,656.363708 866.280090,655.254822 865.273254,654.506958   C863.420898,653.131409 861.406921,652.888000 859.918457,654.727600   C858.245789,656.794556 859.968262,658.173157 861.624634,659.037659   C864.721252,660.653748 867.992493,661.934814 871.093689,663.543091   C875.967285,666.070679 879.487427,669.654236 879.193970,675.635010   C878.887634,681.876648 875.275818,685.734802 869.707825,687.882324   C861.794373,690.934448 853.806946,691.062378 845.780457,688.159851   C843.198425,687.226196 841.864624,685.711365 842.611511,682.886841   C843.635803,679.013428 841.534546,673.369141 848.529968,672.892700   C851.137634,672.715088 852.776306,672.879089 853.778809,675.872864   C855.056824,679.689270 857.941406,680.858643 861.869446,678.326782  z" fill="#3582AE"/>
<path opacity="1.000000" stroke="none" d=" M775.633301,678.706604   C777.974915,677.925842 778.817749,676.259949 779.159729,674.435425   C779.698975,671.558899 781.434998,670.840698 784.122253,670.720520   C791.197815,670.404175 791.193237,670.302795 790.494446,677.440063   C789.477539,687.825500 789.477539,687.825500 778.943665,689.680481   C767.734192,691.654419 758.714783,688.382935 754.760315,680.213806   C750.000854,670.381653 750.112610,660.271912 756.566772,651.327393   C762.579956,642.993958 771.838806,641.794006 781.328186,643.216492   C791.839355,644.792175 791.806274,645.012817 790.468445,655.729248   C789.735474,661.601257 786.942383,663.450989 781.102905,662.272095   C778.793640,661.805908 778.752380,660.299561 778.685669,658.605591   C778.574158,655.775574 777.488770,653.554688 774.374023,653.559204   C771.493591,653.563354 769.786987,655.495361 769.395874,658.263000   C768.669373,663.402893 768.707764,668.601135 769.563049,673.697144   C770.046692,676.579102 771.603577,679.075562 775.633301,678.706604  z" fill="#3582AE"/>
<path opacity="1.000000" stroke="none" d=" M494.678040,668.943054   C494.462158,663.701294 495.131042,658.903870 494.220245,653.907288   C491.553558,654.390869 491.405243,656.210571 491.228851,658.017822   C490.974945,660.619690 489.858887,662.141296 486.986847,662.641296   C481.686646,663.564026 480.697540,662.974487 480.937897,657.454834   C481.125793,653.140625 480.323944,648.050415 482.327087,644.733398   C484.836395,640.578247 490.180511,644.260010 494.293884,643.833557   C502.385437,642.994690 510.600067,644.377075 518.721436,643.006897   C521.350464,642.563416 522.295837,644.049622 522.336548,646.490234   C522.405945,650.652771 522.487549,654.817810 522.705994,658.974365   C522.939148,663.411194 519.285095,662.187805 517.072449,662.839172   C514.768066,663.517456 513.274658,662.482788 512.849121,659.947388   C512.494019,657.831604 513.428101,655.134460 509.295410,653.426636   C509.295410,659.343201 509.294312,664.712097 509.295959,670.080933   C509.296661,672.413879 509.330872,674.747192 509.299438,677.079651   C509.263123,679.771973 510.222260,681.540466 513.171021,681.891113   C516.158630,682.246277 516.183594,684.510010 516.046936,686.783936   C515.888123,689.426758 514.003601,689.328735 512.084961,689.360596   C504.930756,689.479309 497.759125,688.807373 490.622650,689.838074   C489.441864,690.008606 488.023041,689.986572 487.801453,688.512146   C487.512024,686.586365 486.949371,683.718506 488.991241,683.079346   C496.611206,680.693787 494.326080,674.594666 494.678040,668.943054  z" fill="#3582AE"/>
<path opacity="1.000000" stroke="none" d=" M165.902725,643.660583   C166.717896,643.659973 167.068497,643.590942 167.380371,643.671631   C169.539169,644.230286 172.862595,642.182922 173.619919,645.801697   C174.260162,648.861267 173.023956,651.210205 169.450012,651.942749   C167.892715,652.261902 167.473618,653.935608 167.306915,655.549377   C166.640259,662.002808 166.153275,668.460205 166.398651,674.953308   C166.472015,676.894531 165.996689,679.251892 168.813248,679.672729   C171.689575,680.102478 173.323532,678.376587 173.613510,675.780701   C174.170975,670.790283 176.044785,667.806152 181.759598,668.414490   C184.324829,668.687561 185.647690,669.580811 185.160675,672.043152   C184.314804,676.319702 184.327225,680.630798 184.124969,684.942627   C183.949478,688.684326 182.101486,690.011780 178.226807,689.704651   C169.443909,689.008606 160.625381,689.012695 151.827591,689.716248   C150.027588,689.860229 147.941238,690.641724 147.130753,688.290894   C146.459961,686.345215 146.582840,684.016907 148.413330,682.817444   C151.759384,680.624817 151.933121,677.488892 151.889755,674.069519   C151.822266,668.747681 151.883087,663.424316 151.853531,658.101868   C151.836395,655.015442 152.517487,651.723328 148.300812,650.356628   C146.658203,649.824219 146.984024,647.949890 147.363205,646.403015   C147.839279,644.460999 149.025467,643.698730 150.949585,643.705383   C155.773026,643.722046 160.596664,643.679993 165.902725,643.660583  z" fill="#3582AE"/>
<path opacity="1.000000" stroke="none" d=" M263.348938,676.363647   C263.505127,679.170837 264.925537,680.018738 267.078918,679.639404   C269.656647,679.185364 270.669708,677.161499 270.663391,674.894897   C270.645599,668.520569 272.642700,668.769714 278.829590,668.515442   C281.248840,668.415955 282.155090,669.678955 281.919220,671.921204   C281.398590,676.870178 280.874451,681.819397 280.276489,686.759399   C279.885803,689.987061 277.609497,689.988586 275.075470,689.772217   C266.282898,689.021423 257.482910,688.998413 248.687836,689.794434   C247.060226,689.941650 245.115387,690.585266 244.198669,688.747620   C243.159775,686.664978 243.417450,684.143799 245.258865,682.797241   C248.614304,680.343567 248.802750,677.090637 248.736511,673.499023   C248.644501,668.509521 248.738007,663.516907 248.707626,658.525879   C248.687973,655.296936 249.501144,651.779480 245.083160,650.322815   C243.567551,649.823181 244.060577,648.116150 244.382202,646.788330   C244.750504,645.267761 245.161758,643.799927 247.108215,643.794739   C254.718262,643.774292 262.328369,643.786316 270.189240,643.786316   C270.537048,647.606873 270.961090,650.766602 266.472595,651.994751   C264.396362,652.562927 264.321014,654.611511 264.113342,656.512390   C263.407471,662.973938 263.190125,669.445923 263.348938,676.363647  z" fill="#3582AE"/>
<path opacity="1.000000" stroke="none" d=" M533.275513,269.519531   C539.296387,262.589996 546.260803,260.825317 553.570312,264.116821   C559.580811,266.823364 563.692200,273.978088 562.909729,280.369568   C561.954468,288.172943 556.810852,293.664886 548.632385,294.846863   C542.617432,295.716187 537.407776,293.554138 533.793091,288.583282   C529.435913,282.591339 529.508057,276.233246 533.275513,269.519531  z" fill="#3582AE"/>
<path opacity="1.000000" stroke="none" d=" M745.822754,650.588257   C742.543335,652.756348 742.564209,655.897827 742.460754,658.846741   C742.274048,664.165833 742.312256,669.493469 742.295471,674.817627   C742.285706,677.908081 741.569946,681.220825 745.913086,682.461304   C747.618774,682.948486 747.301880,684.928711 746.951050,686.404053   C746.584351,687.946594 745.789368,689.231445 743.965942,689.249390   C737.644592,689.311707 731.317505,689.492371 725.003662,689.287903   C722.451782,689.205261 721.566956,684.947144 724.115295,683.102173   C727.754089,680.467712 727.727783,677.108765 727.672119,673.404053   C727.599670,668.579895 727.667725,663.753845 727.643555,658.928711   C727.626587,655.533081 728.462463,651.893982 723.953247,650.196777   C722.467834,649.637695 722.757324,647.621765 723.059937,646.115784   C723.363464,644.605530 724.342041,643.785095 725.854248,643.778870   C732.795471,643.750000 739.736938,643.766174 746.577209,643.766174   C747.441162,646.386292 747.744202,648.445312 745.822754,650.588257  z" fill="#3582AE"/>
<path opacity="1.000000" stroke="none" d=" M473.862244,246.544250   C481.022125,243.871292 486.777435,245.191818 490.217712,250.033646   C493.315125,254.392914 493.297852,260.841461 490.013397,264.953766   C486.859344,268.902771 482.707764,270.627319 477.680786,269.648102   C472.387939,268.617157 469.069519,265.171753 467.995148,260.080292   C466.837128,254.592377 468.581787,249.898651 473.862244,246.544250  z" fill="#3582AE"/>
<path opacity="1.000000" stroke="none" d=" M319.918701,721.420410   C328.215210,720.035156 332.176849,722.067139 333.646057,728.408020   C335.182007,735.036987 331.355591,741.596680 324.788879,743.592041   C317.770874,745.724548 317.380157,747.067139 322.293945,753.137329   C319.048645,755.155518 315.804565,754.433350 312.476105,753.775452   C314.915222,745.795776 316.061493,728.070801 311.946014,722.817505   C314.281647,721.033691 316.635254,719.944092 319.918701,721.420410  M319.147858,733.518677   C319.226410,739.456726 321.748077,741.574585 325.920227,739.164856   C328.398376,737.733582 328.891632,735.315796 328.889862,732.711243   C328.887939,729.912903 328.300323,727.168518 325.614838,725.902161   C322.809021,724.579163 320.321136,725.390137 319.383423,728.663391   C319.027283,729.906433 319.219177,731.306458 319.147858,733.518677  z" fill="#23953D"/>
<path opacity="1.000000" stroke="none" d=" M620.236694,750.548462   C621.316528,751.330322 622.529907,751.658508 622.385071,752.857788   C622.238281,754.073425 621.094849,754.280334 620.074890,754.290833   C617.623108,754.316040 615.131958,754.674561 612.922791,753.976807   C615.384277,743.343933 616.003601,733.100159 612.516541,722.161621   C617.725830,720.095520 623.628967,720.111206 628.986694,721.874146   C633.522766,723.366577 634.648193,728.091003 634.087646,732.768188   C633.387695,738.608276 629.630615,742.974609 623.605042,743.886963   C619.053711,744.576111 618.446289,746.618103 620.236694,750.548462  M629.339294,734.045654   C629.709717,732.876038 629.510803,731.761475 629.078186,730.642822   C627.959656,727.750061 626.741394,724.833801 622.853577,725.495789   C619.030945,726.146667 619.239624,729.237793 619.291382,732.123962   C619.309265,733.120972 619.234131,734.122131 619.297791,735.115234   C619.409241,736.854004 618.783386,739.046387 621.301086,739.606201   C623.649414,740.128235 626.026062,740.080017 627.628967,737.881165   C628.295105,736.967346 628.613831,735.800293 629.339294,734.045654  z" fill="#23953D"/>
<path opacity="1.000000" stroke="none" d=" M398.326721,724.943176   C402.450195,732.498230 398.158325,741.594360 390.609558,743.725159   C383.806335,745.645569 383.337250,747.533020 388.370270,752.903748   C385.291351,755.653198 381.913788,753.782959 378.601929,754.239197   C381.336853,743.424500 382.080048,733.194397 378.625580,722.710938   C383.694489,719.003784 393.227234,719.745178 398.326721,724.943176  M392.782745,726.687805   C387.815033,724.330444 385.526215,725.541870 385.205200,730.739807   C385.113129,732.231140 385.082489,733.734131 385.153992,735.225525   C385.238068,736.979187 384.769409,739.133911 387.272156,739.669495   C389.669952,740.182678 391.967621,739.899719 393.566467,737.757690   C396.225128,734.195740 395.827942,730.668701 392.782745,726.687805  z" fill="#23953D"/>
<path opacity="1.000000" stroke="none" d=" M511.822296,226.557571   C506.229004,223.676956 503.908600,219.418106 505.132355,214.840927   C506.383270,210.162247 510.344849,206.972885 514.890259,206.985138   C519.543152,206.997681 523.608154,210.541992 524.630859,215.477814   C526.029175,222.227219 519.835022,227.813339 511.822296,226.557571  z" fill="#3582AE"/>
<path opacity="1.000000" stroke="none" d=" M501.678101,732.059692   C501.914703,728.445007 501.759644,725.373901 499.306274,723.328979   C499.718750,721.918030 500.543030,721.636841 501.330719,721.454041   C505.711487,720.437195 510.192566,721.296936 514.662842,720.780518   C518.099182,720.383606 519.857544,723.943665 519.968689,727.429321   C520.031555,729.398682 519.608093,731.383728 519.401062,733.361450   C519.066956,736.552856 519.077637,739.637817 522.766785,741.837219   C519.158936,744.424622 515.989502,743.856689 512.111084,742.992920   C515.488525,738.673767 514.870544,734.026001 514.810242,729.462036   C514.781311,727.275269 514.270264,725.310303 511.630341,725.303406   C509.182037,725.296997 506.611359,726.030212 506.535156,728.930969   C506.418762,733.361694 504.545074,738.260132 509.453033,741.849487   C506.102570,744.964905 502.796448,743.148560 498.506317,743.521729   C501.552307,739.606201 502.020813,736.135498 501.678101,732.059692  z" fill="#23953D"/>
<path opacity="1.000000" stroke="none" d=" M260.807617,726.047119   C260.812256,717.651733 260.812256,717.651733 257.800568,713.035706   C261.460693,711.241150 265.045898,711.842041 269.323517,712.401855   C264.298584,719.579468 266.665375,727.334351 266.036804,734.722229   C265.876923,736.601807 265.463806,739.064270 268.219360,739.597839   C270.906921,740.118164 273.560669,740.074829 275.089600,737.039246   C275.697815,735.831665 275.718262,733.897644 277.875824,734.100281   C280.609833,739.933411 278.344543,744.001282 272.308167,743.966064   C267.987793,743.940796 263.667542,743.759216 259.350189,743.577148   C258.945190,743.560120 258.561523,743.038025 257.777161,742.464844   C262.326904,737.828125 260.448822,731.999756 260.807617,726.047119  z" fill="#23953D"/>
<path opacity="1.000000" stroke="none" d=" M674.701965,721.415527   C682.524475,719.294312 687.542908,722.072021 688.870728,728.896606   C690.292542,736.204163 685.680664,743.261047 678.868347,744.057129   C674.425781,744.576294 671.149719,742.703674 669.093384,738.761902   C666.782349,734.332031 667.533325,727.954163 670.875366,724.333008   C671.866089,723.259583 673.192322,722.495789 674.701965,721.415527  M676.894836,724.502136   C672.997742,727.521790 671.835144,733.718994 674.439209,737.592102   C676.714111,740.975647 680.432129,741.260315 682.611511,738.217834   C685.999451,733.488220 683.317749,726.055481 676.894836,724.502136  z" fill="#23953D"/>
<path opacity="1.000000" stroke="none" d=" M372.614227,739.433960   C368.000092,744.165955 363.293060,745.332031 359.073273,743.043274   C355.073608,740.874023 352.870758,735.124268 354.093475,730.045532   C355.460846,724.365967 359.940979,720.423157 365.159790,720.306396   C371.111481,720.173218 375.819000,725.947021 375.129700,732.624878   C374.889557,734.951477 374.158875,737.151550 372.614227,739.433960  M359.279816,735.173279   C362.032349,740.516296 364.763245,741.822021 367.744476,739.220520   C370.118378,737.148987 370.616028,730.996338 368.616699,727.602722   C367.260498,725.300720 365.229675,723.358582 362.574951,724.737671   C358.716583,726.742004 357.824921,730.355469 359.279816,735.173279  z" fill="#23953D"/>
<path opacity="1.000000" stroke="none" d=" M282.549072,733.378906   C284.782532,732.612427 286.696503,732.077942 288.593567,731.488953   C290.231567,730.980469 291.927734,730.359070 291.454620,728.154114   C290.957855,725.838867 289.302734,724.852234 287.016266,725.217529   C285.421783,725.472290 283.873688,726.017456 281.146667,726.739624   C282.368225,721.831177 285.881378,721.171326 288.905975,720.687439   C292.559723,720.102783 295.603577,721.642700 296.174225,725.691528   C296.539764,728.285034 296.346069,730.995667 296.105286,733.626587   C295.807007,736.885620 296.499268,739.220337 300.697083,739.244629   C299.152405,743.322815 297.109802,745.417603 293.223572,742.891052   C291.656311,741.872131 290.596985,742.047974 289.191711,742.880005   C286.061340,744.733337 283.408539,743.803284 281.356354,741.094177   C279.321167,738.407532 279.805023,735.844849 282.549072,733.378906  M287.572632,739.210388   C289.952759,738.614502 291.906067,737.720093 291.035065,734.613831   C285.185394,735.510315 284.980774,735.749329 287.572632,739.210388  z" fill="#23953D"/>
<path opacity="1.000000" stroke="none" d=" M545.241211,734.520508   C544.437622,738.160278 542.710144,740.719482 539.897034,742.457275   C535.663635,745.072632 530.775757,744.610962 527.528076,741.370483   C524.251343,738.101013 523.546570,731.150818 526.015198,726.452026   C528.347046,722.013550 533.649658,719.437988 538.072327,720.595581   C542.639893,721.791138 545.152161,725.250244 545.314453,730.613281   C545.349548,731.772217 545.295410,732.933777 545.241211,734.520508  M529.842651,728.549133   C529.160950,730.472229 529.029236,732.487244 529.590942,734.393799   C530.500610,737.481140 531.859192,740.788025 535.760864,740.238770   C539.408997,739.725220 540.462646,736.536865 540.656250,733.156494   C540.753601,731.456238 540.303650,729.879578 539.597412,728.376709   C537.201294,723.277832 533.466492,723.077148 529.842651,728.549133  z" fill="#23953D"/>
<path opacity="1.000000" stroke="none" d=" M738.773621,737.025635   C737.930237,728.046021 740.270142,723.066345 746.050720,720.960144   C751.474731,718.983765 756.560730,721.731812 756.866699,726.831116   C757.029724,729.549377 756.131897,731.401062 752.992249,731.318909   C751.664307,731.284058 750.313721,731.184265 749.009949,731.370178   C746.956665,731.662781 743.564819,730.212402 743.607971,733.851868   C743.650879,737.460388 746.309143,739.306030 749.939209,739.588379   C751.882507,739.739563 753.632751,737.778687 755.965454,739.263062   C755.165771,743.103394 751.816528,743.704407 748.955994,743.983704   C744.107300,744.457031 740.820007,741.763611 738.773621,737.025635  M750.669556,727.133972   C751.380127,725.004333 749.966003,724.468872 748.387878,724.362854   C746.386292,724.228210 744.934021,725.105347 744.398682,727.296082   C746.334595,728.407471 748.251038,727.786865 750.669556,727.133972  z" fill="#23953D"/>
<path opacity="1.000000" stroke="none" d=" M422.329742,740.538147   C418.311981,733.370117 419.655426,726.084473 425.421600,722.095642   C430.836609,718.349609 437.657410,720.669434 438.284302,726.469299   C438.606598,729.451233 437.671692,731.366150 434.287079,731.322998   C431.327789,731.285278 428.367676,731.315125 425.306335,731.315125   C424.649261,735.393066 426.082184,737.583740 429.023285,739.209412   C431.851624,740.772827 434.763855,737.399109 437.588654,739.377563   C434.321747,745.190918 428.799255,745.663757 422.329742,740.538147  M427.052063,728.032410   C428.845734,727.566772 431.040588,728.509644 432.570862,726.390747   C431.856689,724.148132 430.112366,723.929443 428.329285,724.594238   C426.983765,725.095886 425.100189,725.776917 427.052063,728.032410  z" fill="#23953D"/>
<path opacity="1.000000" stroke="none" d=" M598.279785,738.993469   C596.910461,743.795837 591.260925,745.500732 586.448181,742.854553   C582.116394,740.472717 580.041260,735.112183 581.444214,729.927856   C583.055603,723.973267 587.524841,720.077087 592.666016,720.367188   C596.380554,720.576782 598.924744,722.264648 599.486938,726.308960   C599.950562,729.644653 598.933228,731.494263 595.305237,731.333252   C593.976013,731.274292 592.625977,731.190796 591.314026,731.351746   C589.383301,731.588684 586.398621,730.436584 586.409790,733.889099   C586.420166,737.103271 588.386353,739.267090 591.648743,739.497559   C593.736938,739.645020 595.877563,739.050720 598.279785,738.993469  M593.553833,725.342957   C590.303406,723.189026 588.227661,724.304077 586.305298,728.382996   C589.323364,727.306396 592.338318,729.427612 593.553833,725.342957  z" fill="#23953D"/>
<path opacity="1.000000" stroke="none" d=" M464.218567,721.025940   C470.400818,719.806641 474.001099,721.385742 474.977234,725.646729   C475.708008,728.836548 475.174164,731.385803 471.038239,731.327698   C469.708099,731.309021 468.337891,731.140625 467.055969,731.394287   C465.089966,731.783325 461.584167,729.920776 461.687561,733.709290   C461.781555,737.154724 464.192474,739.347595 467.939758,739.609375   C469.905334,739.746826 471.655640,737.924561 473.960205,739.136169   C473.584167,743.028748 470.306732,743.542297 467.627991,743.921082   C463.274597,744.536682 459.859253,742.520630 457.814819,738.570312   C454.620453,732.397949 457.136871,725.279358 464.218567,721.025940  M469.015594,727.115234   C469.921906,724.565369 468.101593,724.341736 466.434723,724.307495   C464.499146,724.267761 463.053864,725.033386 463.032318,727.325989   C464.964386,728.202393 466.715607,727.859802 469.015594,727.115234  z" fill="#23953D"/>
<path opacity="1.000000" stroke="none" d=" M652.245850,726.719482   C650.408997,730.841919 649.143433,726.759827 647.627869,726.772400   C642.903748,730.916443 643.156372,737.413513 648.659119,741.851135   C645.141541,745.119080 641.548279,744.029236 637.782776,742.993958   C640.677429,736.171265 640.647766,726.403442 637.272095,722.784973   C639.657288,721.037842 641.999634,719.719788 644.901123,721.512390   C645.702148,722.007324 646.390869,721.923584 647.240173,721.765442   C653.052795,720.683228 653.056702,720.704285 652.245850,726.719482  z" fill="#23953D"/>
<path opacity="1.000000" stroke="none" d=" M573.132446,739.783936   C575.902405,741.453796 575.556824,742.867249 573.048889,743.529236   C570.336121,744.245361 567.531494,744.196472 564.794678,742.825500   C567.079956,736.026978 568.381897,729.459106 564.391357,722.672241   C566.781128,721.521606 569.067993,719.097046 571.969421,721.983398   C572.863403,722.872803 573.370300,722.207458 574.110840,721.973755   C579.699768,720.209900 580.370605,720.836548 579.216431,726.740723   C579.097778,727.347839 578.722412,727.904785 578.548157,728.299377   C576.347717,729.338013 576.067810,726.730530 574.592163,726.662354   C571.183533,727.204895 570.088623,735.000732 573.132446,739.783936  z" fill="#23953D"/>
<path opacity="1.000000" stroke="none" d=" M412.208435,743.532349   C409.044434,743.931519 406.246704,744.383362 403.516296,742.824707   C406.348389,736.086914 407.236420,729.549622 403.240021,722.719788   C405.282288,721.130371 407.481628,719.978699 410.213043,721.525208   C410.979736,721.959290 411.601166,722.300964 412.495758,721.975281   C414.297272,721.319458 416.524048,719.557678 417.928558,721.571167   C419.374481,723.643921 418.584961,726.269287 417.130890,728.597839   C415.022919,728.642395 413.076385,724.451233 411.011658,728.399475   C409.680481,730.945007 409.897400,738.387146 411.814270,739.600586   C413.667419,740.773865 415.114807,741.537598 412.208435,743.532349  z" fill="#23953D"/>
<path opacity="1.000000" stroke="none" d=" M706.925476,727.404175   C704.566833,730.170593 703.928345,726.389343 702.287476,726.601135   C697.702698,730.628540 698.008911,737.121948 703.427795,741.909912   C700.043884,745.266418 696.465515,743.454712 692.556152,742.894165   C695.101379,736.060547 696.434143,729.488647 692.257812,722.704346   C694.887329,721.513245 697.402527,718.564148 700.435547,722.832520   C702.324646,722.253601 704.159790,719.700378 706.507080,721.149353   C708.887939,722.619141 707.278442,725.045044 706.925476,727.404175  z" fill="#23953D"/>
<path opacity="1.000000" stroke="none" d=" M346.023682,739.802002   C348.853973,741.507935 348.350098,742.965332 345.897156,743.523254   C343.207062,744.135193 340.345459,744.425415 337.639099,742.782532   C340.339630,736.177246 341.113647,729.664368 337.374237,722.779724   C339.337402,721.414673 341.485107,719.290649 344.193207,721.999023   C345.544434,723.350403 346.241699,722.212646 347.154480,721.794556   C348.669434,721.100647 350.129517,720.290100 352.007935,721.419006   C352.629730,723.799316 352.422852,726.115540 351.260071,728.406616   C345.332672,725.963623 344.360352,726.619629 344.294739,733.224182   C344.273071,735.405029 343.263855,737.932617 346.023682,739.802002  z" fill="#23953D"/>
<path opacity="1.000000" stroke="none" d=" M734.355774,742.599548   C728.229431,745.269531 725.212341,743.370178 724.719238,737.270142   C724.331970,732.480591 726.379883,727.280151 722.363647,722.977905   C723.428894,719.958496 726.359192,719.263306 728.532166,717.253784   C730.212219,719.327271 731.492371,721.324951 734.284668,720.866882   C735.480530,720.670776 736.623474,721.293884 736.562683,722.830811   C736.515564,724.022949 735.591003,724.706787 734.593506,724.711182   C725.895752,724.749878 729.981812,731.323608 729.440063,735.202393   C728.794983,739.821228 732.655029,739.656555 735.594604,739.476685   C736.252197,741.122070 735.455017,741.746704 734.355774,742.599548  z" fill="#23953D"/>
<path opacity="1.000000" stroke="none" d=" M452.852234,724.697144   C448.792328,724.107605 447.250366,725.786560 447.415680,729.395691   C447.468811,730.555664 447.469391,731.726624 447.376892,732.883179   C447.011536,737.452087 448.014954,740.738525 454.039459,739.266113   C453.564178,743.267517 451.083832,744.010071 448.443512,744.013489   C445.646667,744.017090 443.635345,742.376892 443.271393,739.551819   C442.912781,736.768005 442.934418,733.919067 442.988190,731.102539   C443.046112,728.068420 442.976929,725.137512 440.310272,722.955444   C442.089233,720.260864 444.414673,718.851990 447.188629,717.342773   C448.342804,719.621582 449.820801,720.840698 452.514221,720.966003   C455.702728,721.114258 455.713470,722.851196 452.852234,724.697144  z" fill="#23953D"/>
<path opacity="1.000000" stroke="none" d=" M560.435852,742.027588   C553.542358,745.788452 550.218079,743.786377 549.936829,736.286011   C549.762024,731.625061 551.334106,726.618164 547.330994,722.742920   C548.799133,720.154541 551.323547,719.434143 553.208862,717.653442   C555.433350,718.888062 556.689697,721.573425 559.624451,720.907959   C560.602539,720.686096 561.615662,721.372620 561.666199,722.589905   C561.726318,724.040466 560.603882,724.971497 559.463928,724.743164   C553.516418,723.552063 554.366516,727.631287 554.349976,731.086426   C554.342773,732.582275 554.329346,734.079224 554.376587,735.573853   C554.458008,738.149353 555.633667,739.700073 558.394348,739.443359   C560.245972,739.271179 562.094727,738.894104 560.435852,742.027588  z" fill="#23953D"/>
<path opacity="1.000000" stroke="none" d=" M719.556152,742.740112   C716.308350,744.167480 713.331787,744.479858 710.255127,743.051392   C713.441345,736.188660 714.116699,729.566956 710.307800,722.652893   C712.190796,721.461304 714.389343,720.109436 716.545166,721.151611   C719.125610,722.398987 717.314636,725.014404 717.295654,726.996033   C717.244751,732.301880 716.423401,737.693665 719.556152,742.740112  z" fill="#23953D"/>
<path opacity="1.000000" stroke="none" d=" M662.375122,728.464233   C662.703735,733.328430 660.332336,738.288208 665.531982,741.742432   C662.156494,744.963623 658.895386,743.505676 654.997253,743.166443   C657.701904,739.710571 657.959778,736.195862 657.683838,732.591187   C657.429138,729.263855 658.897583,725.552490 654.805664,723.106384   C657.355408,721.293640 659.724548,720.034363 661.727051,721.208313   C664.429504,722.792480 662.326477,725.692200 662.375122,728.464233  z" fill="#23953D"/>
<path opacity="1.000000" stroke="none" d=" M484.070435,746.776367   C482.186066,748.398926 481.117279,750.876160 477.895142,749.990234   C479.215332,746.751831 481.975861,744.097473 480.322083,740.305359   C479.836182,739.191162 481.151733,738.265503 482.363800,737.984680   C484.141907,737.572632 485.220276,738.572083 485.785889,740.074524   C486.696503,742.493530 485.736694,744.566040 484.070435,746.776367  z" fill="#23953D"/>
<path opacity="1.000000" stroke="none" d=" M746.319763,715.132324   C747.963867,713.248230 749.352722,711.586670 750.830872,710.008850   C751.915833,708.850647 753.134277,708.705994 754.245361,710.018860   C755.190979,711.136292 754.905273,712.224548 753.884460,713.071533   C751.837585,714.770203 749.942322,716.908447 747.579468,717.900024   C745.015015,718.976196 744.871948,717.284058 746.319763,715.132324  z" fill="#23953D"/>
<path opacity="1.000000" stroke="none" d=" M466.915283,717.614136   C464.167175,718.969971 462.795166,718.351379 464.342590,715.697021   C465.642944,713.466492 467.733459,711.682983 469.549713,709.773499   C470.320129,708.963501 471.296539,708.908020 472.169952,709.743164   C473.168915,710.698181 473.325134,711.796326 472.316833,712.769897   C470.655853,714.373657 468.888947,715.867676 466.915283,717.614136  z" fill="#23953D"/>
<path opacity="1.000000" stroke="none" d=" M764.737061,743.825684   C762.156738,743.976807 760.928040,742.909180 760.850281,740.702148   C760.797668,739.211548 761.555359,738.153015 763.018921,737.787170   C764.565918,737.400330 766.128479,737.526917 766.844971,739.170654   C767.695068,741.120911 767.027466,742.708252 764.737061,743.825684  z" fill="#23953D"/>
<path opacity="1.000000" stroke="none" d=" M658.369873,715.532410   C656.114563,713.192810 656.624817,711.312195 658.998657,710.162598   C660.802124,709.289246 662.474182,710.260254 662.669128,712.191956   C662.934570,714.821533 661.433350,716.128784 658.369873,715.532410  z" fill="#23953D"/>
<path opacity="1.000000" stroke="none" d=" M716.867249,710.803223   C718.142090,713.592590 717.429260,715.437012 714.731262,715.792175   C712.808105,716.045288 711.543762,714.598999 711.928162,712.689209   C712.441956,710.136780 714.074219,709.114319 716.867249,710.803223  z" fill="#23953D"/>
</svg>